<svg width="40" height="40" viewBox="0 0 40 40" xmlns="http://www.w3.org/2000/svg">
    <g fill="none" fill-rule="evenodd">
        <path d="M0 0h40v40H0z"/>
        <path d="m16.598 16.063 15.25 5.664c.892.331.861 1.603-.046 1.89l-3.354 1.064c.026.078.043.16.05.244L28.5 25v9.036a1 1 0 0 1-1.113.993c-1.97-.224-3.84-.04-5.619.552-.89.296-1.721.915-2.472 1.771a9.997 9.997 0 0 0-1.31 1.912l-.078.155c-.357.774-1.443.768-1.805.024l-.069-.16a7.604 7.604 0 0 0-1.313-1.92c-.785-.835-1.73-1.45-2.851-1.769l-.168-.044c-.92-.223-2.686-.4-5.247-.515a1 1 0 0 1-.952-.924l-.003-.075V25.14L2 24.03v6.47a1 1 0 0 1-1.997.075L0 30.5v-8a1 1 0 0 1 1.205-.979l14.697-5.458a1 1 0 0 1 .696 0zm9.902 9.235-9.948 3.155a1 1 0 0 1-.604 0L7.5 25.774v7.31l.564.033c1.974.124 3.38.295 4.25.525l.101.028c1.493.424 2.742 1.238 3.762 2.322.268.284.511.577.731.876l.11.153.008-.011c.175-.25.363-.496.562-.737l.204-.24c.967-1.102 2.078-1.928 3.345-2.35a14.737 14.737 0 0 1 5.255-.734l.108.005v-7.656zm-10.25-7.231L4.072 22.59l12.178 3.86 12.177-3.86-12.177-4.523z" fill="#FFF"/>
        <path d="M27.75 0C34.515 0 40 5.485 40 12.25c0 3.28-1.296 6.357-3.563 8.637a1 1 0 1 1-1.418-1.41A10.213 10.213 0 0 0 38 12.25C38 6.59 33.41 2 27.75 2S17.5 6.59 17.5 12.25a1 1 0 0 1-2 0C15.5 5.485 20.985 0 27.75 0zm-.372 4.637a1.021 1.021 0 0 1 1.023 0 .927.927 0 0 1 .468.87v.626a3.805 3.805 0 0 1 2.186 1.546.918.918 0 0 1-.279 1.298 1.01 1.01 0 0 1-.516.154 1 1 0 0 1-.822-.42 1.77 1.77 0 0 0-1.51-.815h-.046c-.915 0-1.66.553-1.66 1.24 0 .686.745 1.249 1.66 1.249 1.995 0 3.618 1.397 3.618 3.11-.059 1.46-1.147 2.694-2.641 2.998v.637c-.037.49-.465.87-.98.87-.514 0-.942-.38-.98-.87v-.622a3.792 3.792 0 0 1-2.211-1.55.914.914 0 0 1 .316-1.246 1.013 1.013 0 0 1 1.322.218c.318.506.892.814 1.51.81h.046c.9 0 1.66-.563 1.66-1.244 0-.682-.745-1.24-1.66-1.24-1.995 0-3.618-1.402-3.608-3.12.059-1.457 1.145-2.689 2.636-2.993v-.637a.927.927 0 0 1 .468-.869z" fill-opacity=".5" fill="#FFF"/>
    </g>
</svg>
